# xmcd
#
# Track frame offsets: 
#        150
#        12500
#        23098
#        35088
#        49833
#        64301
#        80792
#        95960
#        111405
#        122195
#        134975
#        152840
#        164784
#        176282
#        189005
#        203488
#
# Disc length: 2878 seconds
#
# Revision: 0
# Processed by: cddbd v1.5.2PL0 Copyright (c) Steve Scherf et al.
# Submitted via: ExactAudioCopy v1.0b4
#
DISCID=ed0b3c10
DTITLE=Sam Frazier Jr  - Take Me Back
DYEAR=2015
DGENRE=Blues
TTITLE0=Take Me Back
TTITLE1=Black And White Love
TTITLE2=Drippin Honey
TTITLE3=I Don't Want Another Love
TTITLE4=No Account man
TTITLE5=Sam Frazier Jr - I Got To Tell Somebody
TTITLE6=Don't Spread Love Your Around
TTITLE7=I'll Take Care Of You
TTITLE8=Set Me Free
TTITLE9=Love Down And Loneliness
TTITLE10=Why Do People Play With Feelings
TTITLE11=It's Phony But It's Real
TTITLE12=I Been Hurt
TTITLE13=Mama Said She Ain't Here
TTITLE14=Love Fish And Bread
TTITLE15=Jeremiah's Brother
EXTD=
EXTT0=
EXTT1=
EXTT2=
EXTT3=
EXTT4=
EXTT5=
EXTT6=
EXTT7=
EXTT8=
EXTT9=
EXTT10=
EXTT11=
EXTT12=
EXTT13=
EXTT14=
EXTT15=
PLAYORDER=
